<?xml version="1.0" standalone="no"?>
<!DOCTYPE svg PUBLIC "-//W3C//DTD SVG 20010904//EN"
 "http://www.w3.org/TR/2001/REC-SVG-20010904/DTD/svg10.dtd">
<svg version="1.0" xmlns="http://www.w3.org/2000/svg"
 width="800.000000pt" height="800.000000pt" viewBox="0 0 800.000000 800.000000"
 preserveAspectRatio="xMidYMid meet">
<metadata>
Created by potrace 1.11, written by Peter Selinger 2001-2013
</metadata>
<g transform="translate(0.000000,800.000000) scale(0.100000,-0.100000)"
fill="#000000" stroke="none">
<path d="M3700 6864 c-63 -7 -144 -19 -180 -25 -36 -6 -74 -13 -85 -15 -101
-18 -339 -87 -465 -136 -110 -43 -314 -138 -390 -183 -129 -76 -296 -190 -369
-250 -402 -333 -647 -654 -865 -1137 -39 -87 -123 -340 -141 -424 -2 -10 -10
-48 -19 -84 -14 -64 -17 -80 -31 -170 -4 -25 -9 -56 -11 -70 -19 -118 -26
-506 -11 -645 4 -38 10 -91 12 -116 5 -40 44 -247 58 -304 19 -76 33 -124 67
-225 270 -809 890 -1461 1687 -1774 85 -33 292 -99 345 -110 13 -3 55 -12 93
-20 223 -48 355 -61 610 -61 179 0 324 8 380 20 11 3 38 7 60 9 61 7 242 45
320 67 103 30 226 70 260 84 17 8 75 32 130 55 90 38 149 67 294 147 72 40
245 157 336 228 156 122 394 357 464 457 8 13 21 29 28 36 64 66 242 350 320
512 115 237 217 549 248 754 3 21 8 48 10 60 3 12 7 41 10 66 2 25 8 74 12
110 10 86 10 467 0 550 -4 36 -10 85 -13 110 -18 168 -90 450 -165 648 -64
169 -233 499 -261 510 -4 2 -8 8 -8 14 0 16 -70 114 -176 248 -368 463 -885
805 -1460 969 -136 39 -304 74 -414 87 -30 3 -66 8 -80 10 -65 12 -493 10
-600 -2z"/>
</g>
</svg>
